<svg width="104" height="24" viewBox="0 0 104 24" fill="none" xmlns="http://www.w3.org/2000/svg">
<g clip-path="url(#clip0_7_98)">
<path d="M9.101 23.6909V15.7109H6.627V12.0439H9.101V10.4639C9.101 6.37895 10.949 4.48595 14.959 4.48595C15.36 4.48595 15.914 4.52795 16.427 4.58895C16.8112 4.62848 17.1924 4.69363 17.568 4.78395V8.10895C17.3509 8.08869 17.133 8.07668 16.915 8.07295C16.6707 8.0666 16.4264 8.0636 16.182 8.06395C15.475 8.06395 14.923 8.15995 14.507 8.37295C14.2273 8.51326 13.9922 8.72862 13.828 8.99495C13.57 9.41495 13.454 9.98995 13.454 10.7469V12.0439H17.373L16.987 14.1469L16.7 15.7109H13.454V23.9559C19.396 23.2379 24 18.1789 24 12.0439C24 5.41695 18.627 0.0439453 12 0.0439453C5.373 0.0439453 0 5.41695 0 12.0439C0 17.6719 3.874 22.3939 9.101 23.6909Z" fill="#FBFDFE"/>
</g>
<path d="M44.5 6C45.6046 6 46.5 5.10457 46.5 4C46.5 2.89543 45.6046 2 44.5 2C43.3954 2 42.5 2.89543 42.5 4C42.5 5.10457 43.3954 6 44.5 6Z" fill="#FBFDFE" stroke="black" stroke-width="2"/>
<path d="M46.5 9H42.5V21.5H46.5V9Z" fill="#FBFDFE" stroke="black" stroke-width="2" stroke-linejoin="round"/>
<path d="M50.5 13.75V21.5H54V14.5C54 13.25 54.75 12.25 56 12.25C57.25 12.25 58 13.5 58 14.5V21.5H61.5V13.75C61.5 12.25 59.75 9 56 9C52.25 9 50.5 12.25 50.5 13.75Z" fill="#FBFDFE" stroke="black" stroke-width="2" stroke-linejoin="round"/>
<path d="M100.947 8.30496C100.937 7.54758 100.795 6.79773 100.528 6.08896C100.296 5.49111 99.9425 4.94816 99.4891 4.49479C99.0358 4.04142 98.4928 3.68761 97.8949 3.45596C97.1953 3.19331 96.4561 3.0513 95.7089 3.03596C94.7469 2.99296 94.4419 2.98096 91.9999 2.98096C89.5579 2.98096 89.2449 2.98096 88.2899 3.03596C87.5431 3.05141 86.8043 3.19343 86.1049 3.45596C85.507 3.68745 84.964 4.0412 84.5106 4.49459C84.0572 4.94798 83.7034 5.49102 83.4719 6.08896C83.2088 6.78809 83.0671 7.52707 83.0529 8.27396C83.0099 9.23696 82.9969 9.54196 82.9969 11.984C82.9969 14.426 82.9969 14.738 83.0529 15.694C83.0679 16.442 83.2089 17.18 83.4719 17.881C83.7038 18.4787 84.0578 19.0215 84.5114 19.4747C84.9649 19.9279 85.508 20.2815 86.1059 20.513C86.8034 20.7862 87.5423 20.9383 88.2909 20.963C89.2539 21.006 89.5589 21.019 92.0009 21.019C94.4429 21.019 94.7559 21.019 95.7109 20.963C96.4581 20.9482 97.1973 20.8066 97.8969 20.544C98.4946 20.312 99.0375 19.9581 99.4908 19.5048C99.9441 19.0515 100.298 18.5086 100.53 17.911C100.793 17.211 100.934 16.473 100.949 15.724C100.992 14.762 101.005 14.457 101.005 12.014C101.003 9.57196 101.003 9.26196 100.947 8.30496ZM91.9939 16.602C89.4399 16.602 87.3709 14.533 87.3709 11.979C87.3709 9.42496 89.4399 7.35596 91.9939 7.35596C93.22 7.35596 94.3959 7.84302 95.2629 8.71C96.1299 9.57698 96.6169 10.7529 96.6169 11.979C96.6169 13.2051 96.1299 14.3809 95.2629 15.2479C94.3959 16.1149 93.22 16.602 91.9939 16.602ZM96.8009 8.26296C96.6593 8.26309 96.5191 8.2353 96.3883 8.18117C96.2574 8.12704 96.1385 8.04764 96.0384 7.94751C95.9383 7.84738 95.8589 7.72849 95.8047 7.59765C95.7506 7.4668 95.7228 7.32656 95.7229 7.18496C95.7229 7.04346 95.7508 6.90334 95.805 6.77262C95.8591 6.64189 95.9385 6.5231 96.0385 6.42305C96.1386 6.32299 96.2574 6.24363 96.3881 6.18948C96.5188 6.13533 96.6589 6.10746 96.8004 6.10746C96.9419 6.10746 97.0821 6.13533 97.2128 6.18948C97.3435 6.24363 97.4623 6.32299 97.5624 6.42305C97.6624 6.5231 97.7418 6.64189 97.7959 6.77262C97.8501 6.90334 97.8779 7.04346 97.8779 7.18496C97.8779 7.78096 97.3959 8.26296 96.8009 8.26296Z" fill="#FBFDFE"/>
<path d="M91.994 14.9821C93.6525 14.9821 94.997 13.6376 94.997 11.9791C94.997 10.3206 93.6525 8.97607 91.994 8.97607C90.3355 8.97607 88.991 10.3206 88.991 11.9791C88.991 13.6376 90.3355 14.9821 91.994 14.9821Z" fill="#FBFDFE"/>
<defs>
<clipPath id="clip0_7_98">
<rect width="24" height="24" fill="white"/>
</clipPath>
</defs>
</svg>
