<svg width="154" height="29" viewBox="0 0 154 29" fill="none" xmlns="http://www.w3.org/2000/svg">
<path d="M0.852273 8.58807V5.54545H15.1875V8.58807H9.84375V23H6.19602V8.58807H0.852273ZM17.4801 23V9.90909H21.1108V23H17.4801ZM19.304 8.22159C18.7642 8.22159 18.3011 8.04261 17.9148 7.68466C17.5341 7.32102 17.3438 6.88636 17.3438 6.38068C17.3438 5.88068 17.5341 5.4517 17.9148 5.09375C18.3011 4.73011 18.7642 4.54829 19.304 4.54829C19.8438 4.54829 20.304 4.73011 20.6847 5.09375C21.071 5.4517 21.2642 5.88068 21.2642 6.38068C21.2642 6.88636 21.071 7.32102 20.6847 7.68466C20.304 8.04261 19.8438 8.22159 19.304 8.22159ZM24.0192 23V9.90909H27.4794V12.2188H27.6328C27.9055 11.4517 28.3601 10.8466 28.9964 10.4034C29.6328 9.96023 30.3942 9.73864 31.2805 9.73864C32.1783 9.73864 32.9425 9.96307 33.5732 10.4119C34.2038 10.8551 34.6243 11.4574 34.8345 12.2188H34.9709C35.2379 11.4688 35.7209 10.8693 36.4197 10.4205C37.1243 9.96591 37.9567 9.73864 38.9169 9.73864C40.1385 9.73864 41.13 10.1278 41.8913 10.9062C42.6584 11.679 43.0419 12.7756 43.0419 14.196V23H39.4197V14.9119C39.4197 14.1847 39.2266 13.6392 38.8402 13.2756C38.4538 12.9119 37.9709 12.7301 37.3913 12.7301C36.7322 12.7301 36.218 12.9403 35.8487 13.3608C35.4794 13.7756 35.2947 14.3239 35.2947 15.0057V23H31.7749V14.8352C31.7749 14.1932 31.5902 13.6818 31.2209 13.3011C30.8572 12.9205 30.3771 12.7301 29.7805 12.7301C29.3771 12.7301 29.0135 12.8324 28.6896 13.0369C28.3714 13.2358 28.1186 13.517 27.9311 13.8807C27.7436 14.2386 27.6499 14.6591 27.6499 15.142V23H24.0192ZM45.978 23V5.54545H49.6087V12.108H49.7195C49.8786 11.7557 50.1087 11.3977 50.4098 11.0341C50.7166 10.6648 51.1143 10.358 51.603 10.1136C52.0973 9.86364 52.7109 9.73864 53.4439 9.73864C54.3984 9.73864 55.2791 9.98864 56.0859 10.4886C56.8928 10.983 57.5376 11.7301 58.0206 12.7301C58.5036 13.7244 58.745 14.9716 58.745 16.4716C58.745 17.9318 58.5092 19.1648 58.0376 20.1705C57.5717 21.1705 56.9354 21.929 56.1286 22.446C55.3274 22.9574 54.4297 23.2131 53.4354 23.2131C52.7308 23.2131 52.1314 23.0966 51.6371 22.8636C51.1484 22.6307 50.7479 22.3381 50.4354 21.9858C50.1229 21.6278 49.8842 21.267 49.7195 20.9034H49.5575V23H45.978ZM49.532 16.4545C49.532 17.233 49.6399 17.9119 49.8558 18.4915C50.0717 19.071 50.3842 19.5227 50.7933 19.8466C51.2024 20.1648 51.6996 20.3239 52.2848 20.3239C52.8757 20.3239 53.3757 20.1619 53.7848 19.8381C54.1939 19.5085 54.5036 19.054 54.7138 18.4744C54.9297 17.8892 55.0376 17.2159 55.0376 16.4545C55.0376 15.6989 54.9325 15.0341 54.7223 14.4602C54.5121 13.8864 54.2024 13.4375 53.7933 13.1136C53.3842 12.7898 52.8814 12.6278 52.2848 12.6278C51.6939 12.6278 51.1939 12.7841 50.7848 13.0966C50.3814 13.4091 50.0717 13.8523 49.8558 14.4261C49.6399 15 49.532 15.6761 49.532 16.4545ZM69.5625 17.4261V9.90909H73.1932V23H69.7074V20.6222H69.571C69.2756 21.3892 68.7841 22.0057 68.0966 22.4716C67.4148 22.9375 66.5824 23.1705 65.5994 23.1705C64.7244 23.1705 63.9545 22.9716 63.2898 22.5739C62.625 22.1761 62.1051 21.6108 61.7301 20.8778C61.3608 20.1449 61.1733 19.267 61.1676 18.2443V9.90909H64.7983V17.5966C64.804 18.3693 65.0114 18.9801 65.4205 19.429C65.8295 19.8778 66.3778 20.1023 67.0653 20.1023C67.5028 20.1023 67.9119 20.0028 68.2926 19.804C68.6733 19.5994 68.9801 19.2983 69.2131 18.9006C69.4517 18.5028 69.5682 18.0114 69.5625 17.4261ZM91.5661 11.6562H87.8331C87.7649 11.1733 87.6257 10.7443 87.4155 10.3693C87.2053 9.98864 86.9354 9.66477 86.6058 9.39773C86.2763 9.13068 85.8956 8.92614 85.4638 8.78409C85.0376 8.64205 84.5746 8.57102 84.0746 8.57102C83.1712 8.57102 82.3842 8.79545 81.7138 9.24432C81.0433 9.6875 80.5234 10.3352 80.1541 11.1875C79.7848 12.0341 79.6001 13.0625 79.6001 14.2727C79.6001 15.517 79.7848 16.5625 80.1541 17.4091C80.5291 18.2557 81.0518 18.8949 81.7223 19.3267C82.3928 19.7585 83.1683 19.9744 84.049 19.9744C84.5433 19.9744 85.0007 19.9091 85.4212 19.7784C85.8473 19.6477 86.2251 19.4574 86.5547 19.2074C86.8842 18.9517 87.157 18.642 87.3729 18.2784C87.5945 17.9148 87.7479 17.5 87.8331 17.0341L91.5661 17.0511C91.4695 17.8523 91.228 18.625 90.8416 19.3693C90.4609 20.108 89.9467 20.7699 89.299 21.3551C88.657 21.9347 87.8899 22.3949 86.9979 22.7358C86.1115 23.071 85.1087 23.2386 83.9893 23.2386C82.4325 23.2386 81.0405 22.8864 79.8132 22.1818C78.5916 21.4773 77.6257 20.4574 76.9155 19.1222C76.2109 17.7869 75.8587 16.1705 75.8587 14.2727C75.8587 12.3693 76.2166 10.75 76.9325 9.41477C77.6484 8.07955 78.62 7.0625 79.8473 6.36364C81.0746 5.65909 82.4553 5.30682 83.9893 5.30682C85.0007 5.30682 85.9382 5.44886 86.8018 5.73295C87.6712 6.01705 88.4411 6.43182 89.1115 6.97727C89.782 7.51704 90.3274 8.17898 90.7479 8.96307C91.174 9.74716 91.4467 10.6449 91.5661 11.6562ZM97.7749 5.54545V23H94.1442V5.54545H97.7749ZM106.598 23.2557C105.274 23.2557 104.129 22.9744 103.163 22.4119C102.203 21.8437 101.462 21.054 100.939 20.0426C100.416 19.0256 100.155 17.8466 100.155 16.5057C100.155 15.1534 100.416 13.9716 100.939 12.9602C101.462 11.9432 102.203 11.1534 103.163 10.5909C104.129 10.0227 105.274 9.73864 106.598 9.73864C107.922 9.73864 109.064 10.0227 110.024 10.5909C110.99 11.1534 111.734 11.9432 112.257 12.9602C112.78 13.9716 113.041 15.1534 113.041 16.5057C113.041 17.8466 112.78 19.0256 112.257 20.0426C111.734 21.054 110.99 21.8437 110.024 22.4119C109.064 22.9744 107.922 23.2557 106.598 23.2557ZM106.615 20.4432C107.217 20.4432 107.72 20.2727 108.124 19.9318C108.527 19.5852 108.831 19.1136 109.036 18.517C109.246 17.9205 109.351 17.2415 109.351 16.4801C109.351 15.7188 109.246 15.0398 109.036 14.4432C108.831 13.8466 108.527 13.375 108.124 13.0284C107.72 12.6818 107.217 12.5085 106.615 12.5085C106.007 12.5085 105.496 12.6818 105.081 13.0284C104.672 13.375 104.362 13.8466 104.152 14.4432C103.947 15.0398 103.845 15.7188 103.845 16.4801C103.845 17.2415 103.947 17.9205 104.152 18.517C104.362 19.1136 104.672 19.5852 105.081 19.9318C105.496 20.2727 106.007 20.4432 106.615 20.4432Z" fill="white"/>
<path d="M120 4.5L117 8.5V22.5C117 23.0304 117.211 23.5391 117.586 23.9142C117.961 24.2893 118.47 24.5 119 24.5H133C133.53 24.5 134.039 24.2893 134.414 23.9142C134.789 23.5391 135 23.0304 135 22.5V8.5L132 4.5H120Z" stroke="white" stroke-width="2" stroke-linecap="round" stroke-linejoin="round"/>
<path d="M117 8.5H135" stroke="white" stroke-width="2" stroke-linecap="round" stroke-linejoin="round"/>
<path d="M130 12.5C130 13.5609 129.579 14.5783 128.828 15.3284C128.078 16.0786 127.061 16.5 126 16.5C124.939 16.5 123.922 16.0786 123.172 15.3284C122.421 14.5783 122 13.5609 122 12.5" stroke="white" stroke-width="2" stroke-linecap="round" stroke-linejoin="round"/>
<path d="M144.273 23.2131C143.278 23.2131 142.378 22.9574 141.571 22.446C140.77 21.929 140.134 21.1705 139.662 20.1705C139.196 19.1648 138.963 17.9318 138.963 16.4716C138.963 14.9716 139.205 13.7244 139.688 12.7301C140.17 11.7301 140.813 10.983 141.614 10.4886C142.42 9.98864 143.304 9.73864 144.264 9.73864C144.997 9.73864 145.608 9.86364 146.097 10.1136C146.591 10.358 146.989 10.6648 147.29 11.0341C147.597 11.3977 147.83 11.7557 147.989 12.108H148.099V5.54545H151.722V23H148.142V20.9034H147.989C147.818 21.267 147.577 21.6278 147.264 21.9858C146.957 22.3381 146.557 22.6307 146.062 22.8636C145.574 23.0966 144.977 23.2131 144.273 23.2131ZM145.423 20.3239C146.009 20.3239 146.503 20.1648 146.906 19.8466C147.315 19.5227 147.628 19.071 147.844 18.4915C148.065 17.9119 148.176 17.233 148.176 16.4545C148.176 15.6761 148.068 15 147.852 14.4261C147.636 13.8523 147.324 13.4091 146.915 13.0966C146.506 12.7841 146.009 12.6278 145.423 12.6278C144.827 12.6278 144.324 12.7898 143.915 13.1136C143.506 13.4375 143.196 13.8864 142.986 14.4602C142.776 15.0341 142.67 15.6989 142.67 16.4545C142.67 17.2159 142.776 17.8892 142.986 18.4744C143.202 19.054 143.511 19.5085 143.915 19.8381C144.324 20.1619 144.827 20.3239 145.423 20.3239Z" fill="white"/>
</svg>
