<svg width="199" height="39" viewBox="0 0 199 39" fill="none" xmlns="http://www.w3.org/2000/svg">
<path d="M1.13636 11.7841V7.72727H20.25V11.7841H13.125V31H8.26136V11.7841H1.13636ZM23.3068 31V13.5455H28.1477V31H23.3068ZM25.7386 11.2955C25.0189 11.2955 24.4015 11.0568 23.8864 10.5795C23.3788 10.0947 23.125 9.51515 23.125 8.84091C23.125 8.17424 23.3788 7.60227 23.8864 7.125C24.4015 6.64015 25.0189 6.39773 25.7386 6.39773C26.4583 6.39773 27.072 6.64015 27.5795 7.125C28.0947 7.60227 28.3523 8.17424 28.3523 8.84091C28.3523 9.51515 28.0947 10.0947 27.5795 10.5795C27.072 11.0568 26.4583 11.2955 25.7386 11.2955ZM32.0256 31V13.5455H36.6392V16.625H36.8438C37.2074 15.6023 37.8134 14.7955 38.6619 14.2045C39.5104 13.6136 40.5256 13.3182 41.7074 13.3182C42.9044 13.3182 43.9233 13.6174 44.7642 14.2159C45.6051 14.8068 46.1657 15.6098 46.446 16.625H46.6278C46.9839 15.625 47.6278 14.8258 48.5597 14.2273C49.4991 13.6212 50.6089 13.3182 51.8892 13.3182C53.518 13.3182 54.84 13.8371 55.8551 14.875C56.8778 15.9053 57.3892 17.3674 57.3892 19.2614V31H52.5597V20.2159C52.5597 19.2462 52.3021 18.5189 51.7869 18.0341C51.2718 17.5492 50.6278 17.3068 49.8551 17.3068C48.9763 17.3068 48.2907 17.5871 47.7983 18.1477C47.3059 18.7008 47.0597 19.4318 47.0597 20.3409V31H42.3665V20.1136C42.3665 19.2576 42.1203 18.5758 41.6278 18.0682C41.143 17.5606 40.5028 17.3068 39.7074 17.3068C39.1695 17.3068 38.6847 17.4432 38.2528 17.7159C37.8286 17.9811 37.4915 18.3561 37.2415 18.8409C36.9915 19.3182 36.8665 19.8788 36.8665 20.5227V31H32.0256ZM61.304 31V7.72727H66.1449V16.4773H66.2926C66.5047 16.0076 66.8116 15.5303 67.2131 15.0455C67.6222 14.553 68.1525 14.1439 68.804 13.8182C69.4631 13.4848 70.2813 13.3182 71.2585 13.3182C72.5313 13.3182 73.7055 13.6515 74.7812 14.3182C75.857 14.9773 76.7169 15.9735 77.3608 17.3068C78.0047 18.6326 78.3267 20.2955 78.3267 22.2955C78.3267 24.2424 78.0123 25.8864 77.3835 27.2273C76.7623 28.5606 75.9138 29.572 74.8381 30.2614C73.7699 30.9432 72.5729 31.2841 71.2472 31.2841C70.3078 31.2841 69.5085 31.1288 68.8494 30.8182C68.1979 30.5076 67.6638 30.1174 67.2472 29.6477C66.8305 29.1705 66.5123 28.6894 66.2926 28.2045H66.0767V31H61.304ZM66.0426 22.2727C66.0426 23.3106 66.1866 24.2159 66.4744 24.9886C66.7623 25.7614 67.179 26.3636 67.7244 26.7955C68.2699 27.2197 68.9328 27.4318 69.7131 27.4318C70.5009 27.4318 71.1676 27.2159 71.7131 26.7841C72.2585 26.3447 72.6714 25.7386 72.9517 24.9659C73.2396 24.1856 73.3835 23.2879 73.3835 22.2727C73.3835 21.2652 73.2434 20.3788 72.9631 19.6136C72.6828 18.8485 72.2699 18.25 71.7244 17.8182C71.179 17.3864 70.5085 17.1705 69.7131 17.1705C68.9252 17.1705 68.2585 17.3788 67.7131 17.7955C67.1752 18.2121 66.7623 18.803 66.4744 19.5682C66.1866 20.3333 66.0426 21.2348 66.0426 22.2727ZM92.75 23.5682V13.5455H97.5909V31H92.9432V27.8295H92.7614C92.3674 28.8523 91.7121 29.6742 90.7955 30.2955C89.8864 30.9167 88.7765 31.2273 87.4659 31.2273C86.2992 31.2273 85.2727 30.9621 84.3864 30.4318C83.5 29.9015 82.8068 29.1477 82.3068 28.1705C81.8144 27.1932 81.5644 26.0227 81.5568 24.6591V13.5455H86.3977V23.7955C86.4053 24.8258 86.6818 25.6402 87.2273 26.2386C87.7727 26.8371 88.5038 27.1364 89.4205 27.1364C90.0038 27.1364 90.5492 27.0038 91.0568 26.7386C91.5644 26.4659 91.9735 26.0644 92.2841 25.5341C92.6023 25.0038 92.7576 24.3485 92.75 23.5682ZM122.088 15.875H117.111C117.02 15.2311 116.834 14.6591 116.554 14.1591C116.274 13.6515 115.914 13.2197 115.474 12.8636C115.035 12.5076 114.527 12.2348 113.952 12.0455C113.384 11.8561 112.766 11.7614 112.099 11.7614C110.895 11.7614 109.846 12.0606 108.952 12.6591C108.058 13.25 107.365 14.1136 106.872 15.25C106.38 16.3788 106.134 17.75 106.134 19.3636C106.134 21.0227 106.38 22.4167 106.872 23.5455C107.372 24.6742 108.069 25.5265 108.963 26.1023C109.857 26.678 110.891 26.9659 112.065 26.9659C112.724 26.9659 113.334 26.8788 113.895 26.7045C114.463 26.5303 114.967 26.2765 115.406 25.9432C115.846 25.6023 116.209 25.1894 116.497 24.7045C116.793 24.2197 116.997 23.6667 117.111 23.0455L122.088 23.0682C121.959 24.1364 121.637 25.1667 121.122 26.1591C120.615 27.1439 119.929 28.0265 119.065 28.8068C118.209 29.5795 117.187 30.1932 115.997 30.6477C114.815 31.0947 113.478 31.3182 111.986 31.3182C109.91 31.3182 108.054 30.8485 106.418 29.9091C104.789 28.9697 103.501 27.6098 102.554 25.8295C101.615 24.0492 101.145 21.8939 101.145 19.3636C101.145 16.8258 101.622 14.6667 102.577 12.8864C103.531 11.1061 104.827 9.75 106.463 8.81818C108.099 7.87879 109.94 7.40909 111.986 7.40909C113.334 7.40909 114.584 7.59848 115.736 7.97727C116.895 8.35606 117.921 8.90909 118.815 9.63636C119.709 10.3561 120.437 11.2386 120.997 12.2841C121.565 13.3295 121.929 14.5265 122.088 15.875ZM130.366 7.72727V31H125.526V7.72727H130.366ZM142.131 31.3409C140.366 31.3409 138.839 30.9659 137.551 30.2159C136.271 29.4583 135.282 28.4053 134.585 27.0568C133.888 25.7008 133.54 24.1288 133.54 22.3409C133.54 20.5379 133.888 18.9621 134.585 17.6136C135.282 16.2576 136.271 15.2045 137.551 14.4545C138.839 13.697 140.366 13.3182 142.131 13.3182C143.896 13.3182 145.419 13.697 146.699 14.4545C147.987 15.2045 148.979 16.2576 149.676 17.6136C150.373 18.9621 150.722 20.5379 150.722 22.3409C150.722 24.1288 150.373 25.7008 149.676 27.0568C148.979 28.4053 147.987 29.4583 146.699 30.2159C145.419 30.9659 143.896 31.3409 142.131 31.3409ZM142.153 27.5909C142.956 27.5909 143.627 27.3636 144.165 26.9091C144.703 26.447 145.108 25.8182 145.381 25.0227C145.661 24.2273 145.801 23.322 145.801 22.3068C145.801 21.2917 145.661 20.3864 145.381 19.5909C145.108 18.7955 144.703 18.1667 144.165 17.7045C143.627 17.2424 142.956 17.0114 142.153 17.0114C141.343 17.0114 140.661 17.2424 140.108 17.7045C139.563 18.1667 139.15 18.7955 138.869 19.5909C138.597 20.3864 138.46 21.2917 138.46 22.3068C138.46 23.322 138.597 24.2273 138.869 25.0227C139.15 25.8182 139.563 26.447 140.108 26.9091C140.661 27.3636 141.343 27.5909 142.153 27.5909Z" fill="url(#paint0_linear_2_176)"/>
<path d="M158.5 8.66675L155.25 13.0001V28.1667C155.25 28.7414 155.478 29.2925 155.885 29.6988C156.291 30.1051 156.842 30.3334 157.417 30.3334H172.583C173.158 30.3334 173.709 30.1051 174.115 29.6988C174.522 29.2925 174.75 28.7414 174.75 28.1667V13.0001L171.5 8.66675H158.5Z" stroke="url(#paint1_linear_2_176)" stroke-width="2" stroke-linecap="round" stroke-linejoin="round"/>
<path d="M155.25 13H174.75" stroke="url(#paint2_linear_2_176)" stroke-width="2" stroke-linecap="round" stroke-linejoin="round"/>
<path d="M169.333 17.3333C169.333 18.4825 168.877 19.5847 168.064 20.3974C167.251 21.21 166.149 21.6666 165 21.6666C163.851 21.6666 162.748 21.21 161.936 20.3974C161.123 19.5847 160.667 18.4825 160.667 17.3333" stroke="url(#paint3_linear_2_176)" stroke-width="2" stroke-linecap="round" stroke-linejoin="round"/>
<path d="M186.364 31.2841C185.038 31.2841 183.837 30.9432 182.761 30.2614C181.693 29.572 180.845 28.5606 180.216 27.2273C179.595 25.8864 179.284 24.2424 179.284 22.2955C179.284 20.2955 179.606 18.6326 180.25 17.3068C180.894 15.9735 181.75 14.9773 182.818 14.3182C183.894 13.6515 185.072 13.3182 186.352 13.3182C187.33 13.3182 188.144 13.4848 188.795 13.8182C189.455 14.1439 189.985 14.553 190.386 15.0455C190.795 15.5303 191.106 16.0076 191.318 16.4773H191.466V7.72727H196.295V31H191.523V28.2045H191.318C191.091 28.6894 190.769 29.1705 190.352 29.6477C189.943 30.1174 189.409 30.5076 188.75 30.8182C188.098 31.1288 187.303 31.2841 186.364 31.2841ZM187.898 27.4318C188.678 27.4318 189.337 27.2197 189.875 26.7955C190.42 26.3636 190.837 25.7614 191.125 24.9886C191.42 24.2159 191.568 23.3106 191.568 22.2727C191.568 21.2348 191.424 20.3333 191.136 19.5682C190.848 18.803 190.432 18.2121 189.886 17.7955C189.341 17.3788 188.678 17.1705 187.898 17.1705C187.102 17.1705 186.432 17.3864 185.886 17.8182C185.341 18.25 184.928 18.8485 184.648 19.6136C184.367 20.3788 184.227 21.2652 184.227 22.2727C184.227 23.2879 184.367 24.1856 184.648 24.9659C184.936 25.7386 185.348 26.3447 185.886 26.7841C186.432 27.2159 187.102 27.4318 187.898 27.4318Z" fill="url(#paint4_linear_2_176)"/>
<defs>
<linearGradient id="paint0_linear_2_176" x1="0" y1="19.5" x2="152" y2="19.5" gradientUnits="userSpaceOnUse">
<stop offset="0.245089" stop-color="#205CF4"/>
<stop offset="0.900127" stop-color="#08319C"/>
</linearGradient>
<linearGradient id="paint1_linear_2_176" x1="155.25" y1="19.5001" x2="174.75" y2="19.5001" gradientUnits="userSpaceOnUse">
<stop offset="0.245089" stop-color="#205CF4"/>
<stop offset="0.900127" stop-color="#08319C"/>
</linearGradient>
<linearGradient id="paint2_linear_2_176" x1="155.25" y1="13.5" x2="174.75" y2="13.5" gradientUnits="userSpaceOnUse">
<stop offset="0.245089" stop-color="#205CF4"/>
<stop offset="0.900127" stop-color="#08319C"/>
</linearGradient>
<linearGradient id="paint3_linear_2_176" x1="160.667" y1="19.4999" x2="169.333" y2="19.4999" gradientUnits="userSpaceOnUse">
<stop offset="0.245089" stop-color="#205CF4"/>
<stop offset="0.900127" stop-color="#08319C"/>
</linearGradient>
<linearGradient id="paint4_linear_2_176" x1="178" y1="19.5" x2="199" y2="19.5" gradientUnits="userSpaceOnUse">
<stop offset="0.245089" stop-color="#205CF4"/>
<stop offset="0.900127" stop-color="#08319C"/>
</linearGradient>
</defs>
</svg>
