<svg width="155" height="30" viewBox="0 0 155 30" fill="none" xmlns="http://www.w3.org/2000/svg">
<path d="M1.35227 9.08807V6.04545H15.6875V9.08807H10.3438V23.5H6.69602V9.08807H1.35227ZM17.9801 23.5V10.4091H21.6108V23.5H17.9801ZM19.804 8.72159C19.2642 8.72159 18.8011 8.54261 18.4148 8.18466C18.0341 7.82102 17.8438 7.38636 17.8438 6.88068C17.8438 6.38068 18.0341 5.9517 18.4148 5.59375C18.8011 5.23011 19.2642 5.04829 19.804 5.04829C20.3438 5.04829 20.804 5.23011 21.1847 5.59375C21.571 5.9517 21.7642 6.38068 21.7642 6.88068C21.7642 7.38636 21.571 7.82102 21.1847 8.18466C20.804 8.54261 20.3438 8.72159 19.804 8.72159ZM24.5192 23.5V10.4091H27.9794V12.7188H28.1328C28.4055 11.9517 28.8601 11.3466 29.4964 10.9034C30.1328 10.4602 30.8942 10.2386 31.7805 10.2386C32.6783 10.2386 33.4425 10.4631 34.0732 10.9119C34.7038 11.3551 35.1243 11.9574 35.3345 12.7188H35.4709C35.7379 11.9688 36.2209 11.3693 36.9197 10.9205C37.6243 10.4659 38.4567 10.2386 39.4169 10.2386C40.6385 10.2386 41.63 10.6278 42.3913 11.4062C43.1584 12.179 43.5419 13.2756 43.5419 14.696V23.5H39.9197V15.4119C39.9197 14.6847 39.7266 14.1392 39.3402 13.7756C38.9538 13.4119 38.4709 13.2301 37.8913 13.2301C37.2322 13.2301 36.718 13.4403 36.3487 13.8608C35.9794 14.2756 35.7947 14.8239 35.7947 15.5057V23.5H32.2749V15.3352C32.2749 14.6932 32.0902 14.1818 31.7209 13.8011C31.3572 13.4205 30.8771 13.2301 30.2805 13.2301C29.8771 13.2301 29.5135 13.3324 29.1896 13.5369C28.8714 13.7358 28.6186 14.017 28.4311 14.3807C28.2436 14.7386 28.1499 15.1591 28.1499 15.642V23.5H24.5192ZM46.478 23.5V6.04545H50.1087V12.608H50.2195C50.3786 12.2557 50.6087 11.8977 50.9098 11.5341C51.2166 11.1648 51.6143 10.858 52.103 10.6136C52.5973 10.3636 53.2109 10.2386 53.9439 10.2386C54.8984 10.2386 55.7791 10.4886 56.5859 10.9886C57.3928 11.483 58.0376 12.2301 58.5206 13.2301C59.0036 14.2244 59.245 15.4716 59.245 16.9716C59.245 18.4318 59.0092 19.6648 58.5376 20.6705C58.0717 21.6705 57.4354 22.429 56.6286 22.946C55.8274 23.4574 54.9297 23.7131 53.9354 23.7131C53.2308 23.7131 52.6314 23.5966 52.1371 23.3636C51.6484 23.1307 51.2479 22.8381 50.9354 22.4858C50.6229 22.1278 50.3842 21.767 50.2195 21.4034H50.0575V23.5H46.478ZM50.032 16.9545C50.032 17.733 50.1399 18.4119 50.3558 18.9915C50.5717 19.571 50.8842 20.0227 51.2933 20.3466C51.7024 20.6648 52.1996 20.8239 52.7848 20.8239C53.3757 20.8239 53.8757 20.6619 54.2848 20.3381C54.6939 20.0085 55.0036 19.554 55.2138 18.9744C55.4297 18.3892 55.5376 17.7159 55.5376 16.9545C55.5376 16.1989 55.4325 15.5341 55.2223 14.9602C55.0121 14.3864 54.7024 13.9375 54.2933 13.6136C53.8842 13.2898 53.3814 13.1278 52.7848 13.1278C52.1939 13.1278 51.6939 13.2841 51.2848 13.5966C50.8814 13.9091 50.5717 14.3523 50.3558 14.9261C50.1399 15.5 50.032 16.1761 50.032 16.9545ZM70.0625 17.9261V10.4091H73.6932V23.5H70.2074V21.1222H70.071C69.7756 21.8892 69.2841 22.5057 68.5966 22.9716C67.9148 23.4375 67.0824 23.6705 66.0994 23.6705C65.2244 23.6705 64.4545 23.4716 63.7898 23.0739C63.125 22.6761 62.6051 22.1108 62.2301 21.3778C61.8608 20.6449 61.6733 19.767 61.6676 18.7443V10.4091H65.2983V18.0966C65.304 18.8693 65.5114 19.4801 65.9205 19.929C66.3295 20.3778 66.8778 20.6023 67.5653 20.6023C68.0028 20.6023 68.4119 20.5028 68.7926 20.304C69.1733 20.0994 69.4801 19.7983 69.7131 19.4006C69.9517 19.0028 70.0682 18.5114 70.0625 17.9261ZM92.0661 12.1562H88.3331C88.2649 11.6733 88.1257 11.2443 87.9155 10.8693C87.7053 10.4886 87.4354 10.1648 87.1058 9.89773C86.7763 9.63068 86.3956 9.42614 85.9638 9.28409C85.5376 9.14205 85.0746 9.07102 84.5746 9.07102C83.6712 9.07102 82.8842 9.29545 82.2138 9.74432C81.5433 10.1875 81.0234 10.8352 80.6541 11.6875C80.2848 12.5341 80.1001 13.5625 80.1001 14.7727C80.1001 16.017 80.2848 17.0625 80.6541 17.9091C81.0291 18.7557 81.5518 19.3949 82.2223 19.8267C82.8928 20.2585 83.6683 20.4744 84.549 20.4744C85.0433 20.4744 85.5007 20.4091 85.9212 20.2784C86.3473 20.1477 86.7251 19.9574 87.0547 19.7074C87.3842 19.4517 87.657 19.142 87.8729 18.7784C88.0945 18.4148 88.2479 18 88.3331 17.5341L92.0661 17.5511C91.9695 18.3523 91.728 19.125 91.3416 19.8693C90.9609 20.608 90.4467 21.2699 89.799 21.8551C89.157 22.4347 88.3899 22.8949 87.4979 23.2358C86.6115 23.571 85.6087 23.7386 84.4893 23.7386C82.9325 23.7386 81.5405 23.3864 80.3132 22.6818C79.0916 21.9773 78.1257 20.9574 77.4155 19.6222C76.7109 18.2869 76.3587 16.6705 76.3587 14.7727C76.3587 12.8693 76.7166 11.25 77.4325 9.91477C78.1484 8.57955 79.12 7.5625 80.3473 6.86364C81.5746 6.15909 82.9553 5.80682 84.4893 5.80682C85.5007 5.80682 86.4382 5.94886 87.3018 6.23295C88.1712 6.51705 88.9411 6.93182 89.6115 7.47727C90.282 8.01704 90.8274 8.67898 91.2479 9.46307C91.674 10.2472 91.9467 11.1449 92.0661 12.1562ZM98.2749 6.04545V23.5H94.6442V6.04545H98.2749ZM107.098 23.7557C105.774 23.7557 104.629 23.4744 103.663 22.9119C102.703 22.3437 101.962 21.554 101.439 20.5426C100.916 19.5256 100.655 18.3466 100.655 17.0057C100.655 15.6534 100.916 14.4716 101.439 13.4602C101.962 12.4432 102.703 11.6534 103.663 11.0909C104.629 10.5227 105.774 10.2386 107.098 10.2386C108.422 10.2386 109.564 10.5227 110.524 11.0909C111.49 11.6534 112.234 12.4432 112.757 13.4602C113.28 14.4716 113.541 15.6534 113.541 17.0057C113.541 18.3466 113.28 19.5256 112.757 20.5426C112.234 21.554 111.49 22.3437 110.524 22.9119C109.564 23.4744 108.422 23.7557 107.098 23.7557ZM107.115 20.9432C107.717 20.9432 108.22 20.7727 108.624 20.4318C109.027 20.0852 109.331 19.6136 109.536 19.017C109.746 18.4205 109.851 17.7415 109.851 16.9801C109.851 16.2188 109.746 15.5398 109.536 14.9432C109.331 14.3466 109.027 13.875 108.624 13.5284C108.22 13.1818 107.717 13.0085 107.115 13.0085C106.507 13.0085 105.996 13.1818 105.581 13.5284C105.172 13.875 104.862 14.3466 104.652 14.9432C104.447 15.5398 104.345 16.2188 104.345 16.9801C104.345 17.7415 104.447 18.4205 104.652 19.017C104.862 19.6136 105.172 20.0852 105.581 20.4318C105.996 20.7727 106.507 20.9432 107.115 20.9432Z" fill="url(#paint0_linear_57_113)"/>
<path d="M120.5 5L117.5 9V23C117.5 23.5304 117.711 24.0391 118.086 24.4142C118.461 24.7893 118.97 25 119.5 25H133.5C134.03 25 134.539 24.7893 134.914 24.4142C135.289 24.0391 135.5 23.5304 135.5 23V9L132.5 5H120.5Z" stroke="url(#paint1_linear_57_113)" stroke-width="2" stroke-linecap="round" stroke-linejoin="round"/>
<path d="M117.5 9H135.5" stroke="url(#paint2_linear_57_113)" stroke-width="2" stroke-linecap="round" stroke-linejoin="round"/>
<path d="M130.5 13C130.5 14.0609 130.079 15.0783 129.328 15.8284C128.578 16.5786 127.561 17 126.5 17C125.439 17 124.422 16.5786 123.672 15.8284C122.921 15.0783 122.5 14.0609 122.5 13" stroke="url(#paint3_linear_57_113)" stroke-width="2" stroke-linecap="round" stroke-linejoin="round"/>
<path d="M144.773 23.7131C143.778 23.7131 142.878 23.4574 142.071 22.946C141.27 22.429 140.634 21.6705 140.162 20.6705C139.696 19.6648 139.463 18.4318 139.463 16.9716C139.463 15.4716 139.705 14.2244 140.188 13.2301C140.67 12.2301 141.313 11.483 142.114 10.9886C142.92 10.4886 143.804 10.2386 144.764 10.2386C145.497 10.2386 146.108 10.3636 146.597 10.6136C147.091 10.858 147.489 11.1648 147.79 11.5341C148.097 11.8977 148.33 12.2557 148.489 12.608H148.599V6.04545H152.222V23.5H148.642V21.4034H148.489C148.318 21.767 148.077 22.1278 147.764 22.4858C147.457 22.8381 147.057 23.1307 146.562 23.3636C146.074 23.5966 145.477 23.7131 144.773 23.7131ZM145.923 20.8239C146.509 20.8239 147.003 20.6648 147.406 20.3466C147.815 20.0227 148.128 19.571 148.344 18.9915C148.565 18.4119 148.676 17.733 148.676 16.9545C148.676 16.1761 148.568 15.5 148.352 14.9261C148.136 14.3523 147.824 13.9091 147.415 13.5966C147.006 13.2841 146.509 13.1278 145.923 13.1278C145.327 13.1278 144.824 13.2898 144.415 13.6136C144.006 13.9375 143.696 14.3864 143.486 14.9602C143.276 15.5341 143.17 16.1989 143.17 16.9545C143.17 17.7159 143.276 18.3892 143.486 18.9744C143.702 19.554 144.011 20.0085 144.415 20.3381C144.824 20.6619 145.327 20.8239 145.923 20.8239Z" fill="url(#paint4_linear_57_113)"/>
<defs>
<linearGradient id="paint0_linear_57_113" x1="0.5" y1="15" x2="114.5" y2="15" gradientUnits="userSpaceOnUse">
<stop offset="0.25" stop-color="#205CF4"/>
<stop offset="0.9" stop-color="#031136"/>
</linearGradient>
<linearGradient id="paint1_linear_57_113" x1="117.5" y1="15" x2="135.5" y2="15" gradientUnits="userSpaceOnUse">
<stop offset="0.25" stop-color="#205CF4"/>
<stop offset="0.9" stop-color="#031136"/>
</linearGradient>
<linearGradient id="paint2_linear_57_113" x1="117.5" y1="9.5" x2="135.5" y2="9.5" gradientUnits="userSpaceOnUse">
<stop offset="0.25" stop-color="#205CF4"/>
<stop offset="0.9" stop-color="#031136"/>
</linearGradient>
<linearGradient id="paint3_linear_57_113" x1="122.5" y1="15" x2="130.5" y2="15" gradientUnits="userSpaceOnUse">
<stop offset="0.25" stop-color="#205CF4"/>
<stop offset="0.9" stop-color="#031136"/>
</linearGradient>
<linearGradient id="paint4_linear_57_113" x1="138.5" y1="15" x2="154.5" y2="15" gradientUnits="userSpaceOnUse">
<stop offset="0.25" stop-color="#205CF4"/>
<stop offset="0.9" stop-color="#031136"/>
</linearGradient>
</defs>
</svg>
