<svg width="119" height="22" viewBox="0 0 119 22" fill="none" xmlns="http://www.w3.org/2000/svg">
<path d="M11.5 1L14.59 7.26L21.5 8.27L16.5 13.14L17.68 20.02L11.5 16.77L5.32 20.02L6.5 13.14L1.5 8.27L8.41 7.26L11.5 1Z" fill="#EEAE09" stroke="#EEAE09" stroke-width="2" stroke-linecap="round" stroke-linejoin="round"/>
<path d="M35.5 1L38.59 7.26L45.5 8.27L40.5 13.14L41.68 20.02L35.5 16.77L29.32 20.02L30.5 13.14L25.5 8.27L32.41 7.26L35.5 1Z" fill="#EEAE09" stroke="#EEAE09" stroke-width="2" stroke-linecap="round" stroke-linejoin="round"/>
<path d="M59.5 1L62.59 7.26L69.5 8.27L64.5 13.14L65.68 20.02L59.5 16.77L53.32 20.02L54.5 13.14L49.5 8.27L56.41 7.26L59.5 1Z" fill="#EEAE09" stroke="#EEAE09" stroke-width="2" stroke-linecap="round" stroke-linejoin="round"/>
<path d="M83.5 1L86.59 7.26L93.5 8.27L88.5 13.14L89.68 20.02L83.5 16.77L77.32 20.02L78.5 13.14L73.5 8.27L80.41 7.26L83.5 1Z" fill="#EEAE09" stroke="#EEAE09" stroke-width="2" stroke-linecap="round" stroke-linejoin="round"/>
<path d="M107.5 1L110.59 7.26L117.5 8.27L112.5 13.14L113.68 20.02L107.5 16.77L101.32 20.02L102.5 13.14L97.5 8.27L104.41 7.26L107.5 1Z" stroke="#EEAE09" stroke-width="2" stroke-linecap="round" stroke-linejoin="round"/>
</svg>
